<mxfile host="app.diagrams.net" modified="2021-01-06T09:41:01.664Z" agent="5.0 (Windows NT 10.0; Win64; x64) AppleWebKit/537.36 (KHTML, like Gecko) Chrome/83.0.4103.61 Safari/537.36" etag="ZvAkv30J19EprBOMHNDq" version="14.0.1" type="github">
  <diagram id="C5RBs43oDa-KdzZeNtuy" name="Page-1">
    <mxGraphModel dx="1422" dy="762" grid="1" gridSize="10" guides="1" tooltips="1" connect="1" arrows="1" fold="1" page="1" pageScale="1" pageWidth="827" pageHeight="1169" math="0" shadow="0">
      <root>
        <mxCell id="WIyWlLk6GJQsqaUBKTNV-0" />
        <mxCell id="WIyWlLk6GJQsqaUBKTNV-1" parent="WIyWlLk6GJQsqaUBKTNV-0" />
        <mxCell id="buQOTVK8fAlZIuUP4ovL-5" value="user_profile" style="swimlane;fontStyle=0;childLayout=stackLayout;horizontal=1;startSize=26;fillColor=none;horizontalStack=0;resizeParent=1;resizeParentMax=0;resizeLast=0;collapsible=1;marginBottom=0;" vertex="1" parent="WIyWlLk6GJQsqaUBKTNV-1">
          <mxGeometry x="110" y="166" width="140" height="52" as="geometry" />
        </mxCell>
        <mxCell id="buQOTVK8fAlZIuUP4ovL-6" value="主键id=userId" style="text;strokeColor=none;fillColor=none;align=left;verticalAlign=top;spacingLeft=4;spacingRight=4;overflow=hidden;rotatable=0;points=[[0,0.5],[1,0.5]];portConstraint=eastwest;" vertex="1" parent="buQOTVK8fAlZIuUP4ovL-5">
          <mxGeometry y="26" width="140" height="26" as="geometry" />
        </mxCell>
        <mxCell id="buQOTVK8fAlZIuUP4ovL-9" value="user_mi_info" style="swimlane;fontStyle=0;childLayout=stackLayout;horizontal=1;startSize=26;fillColor=none;horizontalStack=0;resizeParent=1;resizeParentMax=0;resizeLast=0;collapsible=1;marginBottom=0;" vertex="1" parent="WIyWlLk6GJQsqaUBKTNV-1">
          <mxGeometry x="360" y="160" width="160" height="94" as="geometry" />
        </mxCell>
        <mxCell id="buQOTVK8fAlZIuUP4ovL-10" value="主键id=miinfoid" style="text;strokeColor=none;fillColor=none;align=left;verticalAlign=top;spacingLeft=4;spacingRight=4;overflow=hidden;rotatable=0;points=[[0,0.5],[1,0.5]];portConstraint=eastwest;" vertex="1" parent="buQOTVK8fAlZIuUP4ovL-9">
          <mxGeometry y="26" width="160" height="34" as="geometry" />
        </mxCell>
        <mxCell id="buQOTVK8fAlZIuUP4ovL-58" value="mid" style="text;strokeColor=none;fillColor=none;align=left;verticalAlign=top;spacingLeft=4;spacingRight=4;overflow=hidden;rotatable=0;points=[[0,0.5],[1,0.5]];portConstraint=eastwest;" vertex="1" parent="buQOTVK8fAlZIuUP4ovL-9">
          <mxGeometry y="60" width="160" height="34" as="geometry" />
        </mxCell>
        <mxCell id="buQOTVK8fAlZIuUP4ovL-14" style="edgeStyle=orthogonalEdgeStyle;rounded=0;orthogonalLoop=1;jettySize=auto;html=1;exitX=1;exitY=0.5;exitDx=0;exitDy=0;entryX=0;entryY=0.5;entryDx=0;entryDy=0;" edge="1" parent="WIyWlLk6GJQsqaUBKTNV-1" source="buQOTVK8fAlZIuUP4ovL-6">
          <mxGeometry relative="1" as="geometry">
            <mxPoint x="360" y="205" as="targetPoint" />
          </mxGeometry>
        </mxCell>
        <mxCell id="buQOTVK8fAlZIuUP4ovL-15" value="1:N" style="text;html=1;align=center;verticalAlign=middle;resizable=0;points=[];autosize=1;" vertex="1" parent="WIyWlLk6GJQsqaUBKTNV-1">
          <mxGeometry x="285" y="182" width="30" height="20" as="geometry" />
        </mxCell>
        <mxCell id="buQOTVK8fAlZIuUP4ovL-16" value="user_bind_info" style="swimlane;fontStyle=0;childLayout=stackLayout;horizontal=1;startSize=26;fillColor=none;horizontalStack=0;resizeParent=1;resizeParentMax=0;resizeLast=0;collapsible=1;marginBottom=0;" vertex="1" parent="WIyWlLk6GJQsqaUBKTNV-1">
          <mxGeometry x="630" y="152" width="160" height="108" as="geometry" />
        </mxCell>
        <mxCell id="buQOTVK8fAlZIuUP4ovL-17" value="openId" style="text;strokeColor=none;fillColor=none;align=left;verticalAlign=top;spacingLeft=4;spacingRight=4;overflow=hidden;rotatable=0;points=[[0,0.5],[1,0.5]];portConstraint=eastwest;" vertex="1" parent="buQOTVK8fAlZIuUP4ovL-16">
          <mxGeometry y="26" width="160" height="26" as="geometry" />
        </mxCell>
        <mxCell id="buQOTVK8fAlZIuUP4ovL-59" value="partner" style="text;strokeColor=none;fillColor=none;align=left;verticalAlign=top;spacingLeft=4;spacingRight=4;overflow=hidden;rotatable=0;points=[[0,0.5],[1,0.5]];portConstraint=eastwest;" vertex="1" parent="buQOTVK8fAlZIuUP4ovL-16">
          <mxGeometry y="52" width="160" height="28" as="geometry" />
        </mxCell>
        <mxCell id="buQOTVK8fAlZIuUP4ovL-18" value="insideid(替换为miinfoid)" style="text;strokeColor=none;fillColor=none;align=left;verticalAlign=top;spacingLeft=4;spacingRight=4;overflow=hidden;rotatable=0;points=[[0,0.5],[1,0.5]];portConstraint=eastwest;" vertex="1" parent="buQOTVK8fAlZIuUP4ovL-16">
          <mxGeometry y="80" width="160" height="28" as="geometry" />
        </mxCell>
        <mxCell id="buQOTVK8fAlZIuUP4ovL-35" value="user_out_info" style="swimlane;fontStyle=0;childLayout=stackLayout;horizontal=1;startSize=26;fillColor=none;horizontalStack=0;resizeParent=1;resizeParentMax=0;resizeLast=0;collapsible=1;marginBottom=0;" vertex="1" parent="WIyWlLk6GJQsqaUBKTNV-1">
          <mxGeometry x="340" y="533" width="360" height="130" as="geometry" />
        </mxCell>
        <mxCell id="buQOTVK8fAlZIuUP4ovL-60" value="主键id=insidid" style="text;strokeColor=none;fillColor=none;align=left;verticalAlign=top;spacingLeft=4;spacingRight=4;overflow=hidden;rotatable=0;points=[[0,0.5],[1,0.5]];portConstraint=eastwest;" vertex="1" parent="buQOTVK8fAlZIuUP4ovL-35">
          <mxGeometry y="26" width="360" height="26" as="geometry" />
        </mxCell>
        <mxCell id="buQOTVK8fAlZIuUP4ovL-36" value="outId" style="text;strokeColor=none;fillColor=none;align=left;verticalAlign=top;spacingLeft=4;spacingRight=4;overflow=hidden;rotatable=0;points=[[0,0.5],[1,0.5]];portConstraint=eastwest;" vertex="1" parent="buQOTVK8fAlZIuUP4ovL-35">
          <mxGeometry y="52" width="360" height="26" as="geometry" />
        </mxCell>
        <mxCell id="buQOTVK8fAlZIuUP4ovL-37" value="partner（保留）" style="text;strokeColor=none;fillColor=none;align=left;verticalAlign=top;spacingLeft=4;spacingRight=4;overflow=hidden;rotatable=0;points=[[0,0.5],[1,0.5]];portConstraint=eastwest;" vertex="1" parent="buQOTVK8fAlZIuUP4ovL-35">
          <mxGeometry y="78" width="360" height="26" as="geometry" />
        </mxCell>
        <mxCell id="buQOTVK8fAlZIuUP4ovL-38" value="accountType（同一合作方使用两种账号情况应该没有，可废弃）" style="text;strokeColor=none;fillColor=none;align=left;verticalAlign=top;spacingLeft=4;spacingRight=4;overflow=hidden;rotatable=0;points=[[0,0.5],[1,0.5]];portConstraint=eastwest;" vertex="1" parent="buQOTVK8fAlZIuUP4ovL-35">
          <mxGeometry y="104" width="360" height="26" as="geometry" />
        </mxCell>
        <mxCell id="buQOTVK8fAlZIuUP4ovL-40" style="edgeStyle=orthogonalEdgeStyle;rounded=0;orthogonalLoop=1;jettySize=auto;html=1;exitX=1;exitY=0.5;exitDx=0;exitDy=0;entryX=0.025;entryY=0.071;entryDx=0;entryDy=0;entryPerimeter=0;" edge="1" parent="WIyWlLk6GJQsqaUBKTNV-1" target="buQOTVK8fAlZIuUP4ovL-18">
          <mxGeometry relative="1" as="geometry">
            <mxPoint x="520" y="205" as="sourcePoint" />
          </mxGeometry>
        </mxCell>
        <mxCell id="buQOTVK8fAlZIuUP4ovL-41" style="edgeStyle=orthogonalEdgeStyle;rounded=0;orthogonalLoop=1;jettySize=auto;html=1;entryX=0;entryY=0.5;entryDx=0;entryDy=0;" edge="1" parent="WIyWlLk6GJQsqaUBKTNV-1" source="buQOTVK8fAlZIuUP4ovL-6" target="buQOTVK8fAlZIuUP4ovL-37">
          <mxGeometry relative="1" as="geometry" />
        </mxCell>
        <mxCell id="buQOTVK8fAlZIuUP4ovL-42" value="1:N" style="text;html=1;align=center;verticalAlign=middle;resizable=0;points=[];autosize=1;" vertex="1" parent="WIyWlLk6GJQsqaUBKTNV-1">
          <mxGeometry x="265" y="280" width="30" height="20" as="geometry" />
        </mxCell>
        <mxCell id="buQOTVK8fAlZIuUP4ovL-43" value="mi_partner_bind_info" style="swimlane;fontStyle=0;childLayout=stackLayout;horizontal=1;startSize=26;fillColor=none;horizontalStack=0;resizeParent=1;resizeParentMax=0;resizeLast=0;collapsible=1;marginBottom=0;" vertex="1" parent="WIyWlLk6GJQsqaUBKTNV-1">
          <mxGeometry x="380" y="370" width="190" height="112" as="geometry" />
        </mxCell>
        <mxCell id="buQOTVK8fAlZIuUP4ovL-44" value="miinfoid" style="text;strokeColor=none;fillColor=none;align=left;verticalAlign=top;spacingLeft=4;spacingRight=4;overflow=hidden;rotatable=0;points=[[0,0.5],[1,0.5]];portConstraint=eastwest;" vertex="1" parent="buQOTVK8fAlZIuUP4ovL-43">
          <mxGeometry y="26" width="190" height="26" as="geometry" />
        </mxCell>
        <mxCell id="buQOTVK8fAlZIuUP4ovL-61" value="partner" style="text;strokeColor=none;fillColor=none;align=left;verticalAlign=top;spacingLeft=4;spacingRight=4;overflow=hidden;rotatable=0;points=[[0,0.5],[1,0.5]];portConstraint=eastwest;" vertex="1" parent="buQOTVK8fAlZIuUP4ovL-43">
          <mxGeometry y="52" width="190" height="30" as="geometry" />
        </mxCell>
        <mxCell id="buQOTVK8fAlZIuUP4ovL-46" value="insideid" style="text;strokeColor=none;fillColor=none;align=left;verticalAlign=top;spacingLeft=4;spacingRight=4;overflow=hidden;rotatable=0;points=[[0,0.5],[1,0.5]];portConstraint=eastwest;" vertex="1" parent="buQOTVK8fAlZIuUP4ovL-43">
          <mxGeometry y="82" width="190" height="30" as="geometry" />
        </mxCell>
        <mxCell id="buQOTVK8fAlZIuUP4ovL-48" style="edgeStyle=orthogonalEdgeStyle;rounded=0;orthogonalLoop=1;jettySize=auto;html=1;entryX=0.75;entryY=0;entryDx=0;entryDy=0;" edge="1" parent="WIyWlLk6GJQsqaUBKTNV-1" source="buQOTVK8fAlZIuUP4ovL-46" target="buQOTVK8fAlZIuUP4ovL-35">
          <mxGeometry relative="1" as="geometry" />
        </mxCell>
        <mxCell id="buQOTVK8fAlZIuUP4ovL-50" value="N:N" style="text;html=1;align=center;verticalAlign=middle;resizable=0;points=[];autosize=1;" vertex="1" parent="WIyWlLk6GJQsqaUBKTNV-1">
          <mxGeometry x="550" y="180" width="40" height="20" as="geometry" />
        </mxCell>
        <mxCell id="buQOTVK8fAlZIuUP4ovL-52" value="1:1" style="text;html=1;align=center;verticalAlign=middle;resizable=0;points=[];autosize=1;" vertex="1" parent="WIyWlLk6GJQsqaUBKTNV-1">
          <mxGeometry x="615" y="470" width="30" height="20" as="geometry" />
        </mxCell>
        <mxCell id="buQOTVK8fAlZIuUP4ovL-55" style="edgeStyle=orthogonalEdgeStyle;rounded=0;orthogonalLoop=1;jettySize=auto;html=1;entryX=0.513;entryY=1.118;entryDx=0;entryDy=0;entryPerimeter=0;" edge="1" parent="WIyWlLk6GJQsqaUBKTNV-1" source="buQOTVK8fAlZIuUP4ovL-44" target="buQOTVK8fAlZIuUP4ovL-58">
          <mxGeometry relative="1" as="geometry">
            <Array as="points">
              <mxPoint x="360" y="409" />
              <mxPoint x="360" y="308" />
              <mxPoint x="442" y="308" />
            </Array>
          </mxGeometry>
        </mxCell>
        <mxCell id="buQOTVK8fAlZIuUP4ovL-56" value="N:1" style="text;html=1;align=center;verticalAlign=middle;resizable=0;points=[];autosize=1;" vertex="1" parent="WIyWlLk6GJQsqaUBKTNV-1">
          <mxGeometry x="410" y="320" width="30" height="20" as="geometry" />
        </mxCell>
      </root>
    </mxGraphModel>
  </diagram>
</mxfile>
